<svg width="50" height="24" viewBox="0 0 50 24" fill="none" xmlns="http://www.w3.org/2000/svg">
<path d="M48.9226 22.7635H46.9086L42.5 13L38.2109 3.94531L30.5778 22.7635H30L38.1544 3.11391L38.1548 3.11288L39 1H39.5L48.9226 22.7635Z" fill="black"/>
<path d="M38.1548 3.11288L30 22.7635H30.5778L39 2M39.5 1L48.9226 22.7635H46.9086L42.5 13L38 3.5L39 1H39.5Z" stroke="black" stroke-width="0.5"/>
<path d="M7.49994 22.7555V1.00952H9.49994V11.5095V22.7555H7.49994Z" fill="black"/>
<path d="M21.4999 1.00952H17.9999H9.49994M9.49994 1.00952H7.49994V22.7555H9.49994V11.5095M9.49994 1.00952V11.5095M9.49994 11.5095H14.4999" stroke="black" stroke-width="0.5"/>
<path d="M25.9999 1.00952H23.9999V22.7462H25.9999V1.00952Z" fill="black" stroke="black" stroke-width="0.5"/>
<circle cx="2.5" cy="20.5" r="2.5" fill="black"/>
</svg>
